<svg width="50" height="50" viewBox="0 0 50 50" fill="none" xmlns="http://www.w3.org/2000/svg">
<path d="M33.942 8.02532C36.9015 8.02532 39.6744 9.1647 41.7691 11.2494C43.8635 13.334 45.0084 16.1023 45 19.0478C45 21.9933 43.8466 24.7615 41.7522 26.8462L25.7929 42.671C25.5724 42.8904 25.2755 43 24.9873 43C24.6989 43 24.4021 42.882 24.1817 42.6625L8.25635 26.8124C6.1618 24.7278 5.00005 21.968 5.00005 19.0225C4.99157 16.0769 6.14484 13.3087 8.23938 11.224C10.3254 9.14782 13.1069 8 16.0579 8C19.0174 8 21.8073 9.15626 23.9018 11.2409L25.0126 12.3465L26.1066 11.2578C28.2011 9.17314 30.9826 8.02532 33.942 8.02532Z" stroke="white" stroke-width="3"/>
<path d="M29.0239 27.9891C30.3557 27.9891 31.6035 27.5008 32.5461 26.6074C33.4886 25.714 34.0038 24.5276 34 23.2652C34 22.0029 33.481 20.8165 32.5385 19.9231L25.3568 13.141C25.2576 13.047 25.124 13 24.9943 13C24.8645 13 24.731 13.0506 24.6318 13.1446L17.4654 19.9375C16.5228 20.8309 16 22.0137 16 23.2761C15.9962 24.5385 16.5152 25.7249 17.4577 26.6183C18.3964 27.5081 19.6481 28 20.976 28C22.3078 28 23.5633 27.5045 24.5058 26.611L25.0057 26.1372L25.498 26.6038C26.4405 27.4972 27.6922 27.9891 29.0239 27.9891Z" stroke="white" stroke-width="3"/>
</svg>
