<svg width="12" height="6" viewBox="0 0 12 6" fill="none" xmlns="http://www.w3.org/2000/svg">
<path d="M10.8214 1.56944C11.1359 1.29988 11.1724 0.826401 10.9028 0.511906C10.6332 0.197412 10.1597 0.160991 9.84525 0.430558L10.8214 1.56944ZM5.66668 5L5.17858 5.56944C5.45945 5.81019 5.8739 5.81019 6.15477 5.56944L5.66668 5ZM1.4881 0.430558C1.17361 0.160991 0.700133 0.197412 0.430567 0.511907C0.161 0.826401 0.197421 1.29988 0.511916 1.56944L1.4881 0.430558ZM9.84525 0.430558L5.17858 4.43056L6.15477 5.56944L10.8214 1.56944L9.84525 0.430558ZM6.15477 4.43056L1.4881 0.430558L0.511916 1.56944L5.17858 5.56944L6.15477 4.43056Z" fill="white"/>
</svg>
