<svg width="281" height="281" viewBox="0 0 281 281" fill="none" xmlns="http://www.w3.org/2000/svg">
<g clip-path="url(#clip0_389_108)">
<path d="M149.823 257.142C118.425 287.84 67.941 287.718 36.718 256.713C5.504 225.726 5.38101 175.584 36.298 144.405L36.272 144.387L149.841 31.615L164.044 17.517C187.566 -5.839 225.694 -5.839 249.216 17.517C272.738 40.873 272.738 78.738 249.216 102.103L124.026 225.123L123.982 225.088C108.554 239.859 83.964 239.754 68.72 224.694C53.476 209.625 53.38 185.333 68.326 170.106L68.282 170.053L82.222 156.297L145.037 94.2556C148.853 90.4862 154.991 90.4878 158.806 94.2592V94.2592C162.685 98.0945 162.683 104.36 158.802 108.193L82.222 183.827C74.521 191.423 74.521 203.753 82.222 211.357C89.923 218.961 102.41 218.961 110.102 211.357L235.02 87.987L234.985 87.961L235.458 87.558C251.14 71.99 251.14 46.735 235.458 31.168C219.776 15.601 194.364 15.6 178.682 31.168L178.262 31.641L178.236 31.623L164.042 45.712L50.466 158.485C26.944 181.841 26.944 219.706 50.466 243.062C73.988 266.418 112.125 266.418 135.629 243.062L235.004 144.387L242.153 137.291C246.052 133.421 252.344 133.421 256.243 137.291V137.291C260.183 141.202 260.184 147.573 256.246 151.485L249.198 158.485L149.841 257.16L149.823 257.142Z" fill="white"/>
</g>
<defs>
<clipPath id="clip0_389_108">
<rect width="280.067" height="280.067" fill="white"/>
</clipPath>
</defs>
</svg>
