<svg width="48" height="48" viewBox="0 0 48 48" fill="none" xmlns="http://www.w3.org/2000/svg">
<path d="M48 24C48 37.2548 37.2548 48 24 48C10.7452 48 0 37.2548 0 24C0 10.7452 10.7452 0 24 0C37.2548 0 48 10.7452 48 24Z" fill="url(#paint0_linear_407_209)"/>
<path fill-rule="evenodd" clip-rule="evenodd" d="M29.9289 15.1613L37.8839 23.1162C38.372 23.6044 38.372 24.3958 37.8839 24.884L29.9289 32.8389C29.4408 33.3271 28.6493 33.3271 28.1612 32.8389C27.673 32.3508 27.673 31.5593 28.1612 31.0712L33.9822 25.2501L11 25.2501C10.3096 25.2501 9.75 24.6905 9.75 24.0001C9.75 23.3098 10.3096 22.7501 11 22.7501L33.9822 22.7501L28.1612 16.929C27.673 16.4409 27.673 15.6494 28.1612 15.1613C28.6493 14.6731 29.4408 14.6731 29.9289 15.1613Z" fill="white"/>
<defs>
<linearGradient id="paint0_linear_407_209" x1="24" y1="0" x2="24" y2="48" gradientUnits="userSpaceOnUse">
<stop stop-color="#444444"/>
<stop offset="1" stop-color="#333333"/>
</linearGradient>
</defs>
</svg>
