<svg width="238" height="189" viewBox="0 0 238 189" fill="none" xmlns="http://www.w3.org/2000/svg">
<path fill-rule="evenodd" clip-rule="evenodd" d="M81.9456 94.4651L94.8565 86.4879L226.038 164.923L225.254 61.8662L236.995 54.7837L238 186.858L81.9456 94.4651ZM101.993 82.0794L218.52 11.1481L218.821 50.7457L148.769 93.2459L206.786 127.488L206.375 73.5701L218.936 65.8362L219.592 151.963L101.993 82.0794ZM225.14 46.9105L224.839 7.33551L236.579 0.199993L236.882 39.9196L225.14 46.9105Z" fill="white"/>
<path fill-rule="evenodd" clip-rule="evenodd" d="M0.939994 94.414L11.6446 87.8001L120.408 152.831L120.408 131.333L130.326 137.163L130.326 171.018L0.939994 94.414ZM17.5619 84.1449L114.175 25.3352L114.425 58.1659L56.3441 93.4032L104.446 121.793L115.063 128.077L115.063 142.086L17.5619 84.1449ZM119.664 54.9861L119.414 22.1741L129.148 16.258L129.399 49.1899L119.664 54.9861Z" fill="white"/>
</svg>
