<svg width="173" height="173" viewBox="0 0 173 173" fill="none" xmlns="http://www.w3.org/2000/svg">
<path d="M156.638 28.4827C156.085 28.4827 155.638 28.9304 155.638 29.4827V29.5495V29.6176V29.6871V29.7579V29.83V29.9035V29.9783V30.0544V30.1318V30.2106V30.2906V30.3719V30.4546V30.5385V30.6237V30.7102V30.7979V30.887V30.9773V31.0689V31.1617V31.2558V31.3512V31.4478V31.5456V31.6447V31.745V31.8465V31.9493V32.0533V32.1585V32.2649V32.3726V32.4814V32.5914V32.7027V32.8151V32.9287V33.0435V33.1594V33.2766V33.3949V33.5144V33.635V33.7568V33.8798V34.0039V34.1291V34.2555V34.383V34.5116V34.6414V34.7723V34.9043V35.0374V35.1716V35.3069V35.4434V35.5809V35.7195V35.8592V36V36.1419V36.2848V36.4288V36.5739V36.72V36.8672V37.0154V37.1647V37.3151V37.4664V37.6188V37.7723V37.9267V38.0822V38.2387V38.3962V38.5547V38.7142V38.8747V39.0363V39.1988V39.3623V39.5267V39.6922V39.8586V40.026V40.1944V40.3637V40.534V40.7052V40.8774V41.0505V41.2245V41.3995V41.5754V41.7523V41.93V42.1087V42.2883V42.4688V42.6502V42.8325V43.0157V43.1998V43.3848V43.5707V43.5891V43.7574V43.945V44.1335V44.3228V44.513V44.7041V44.896V45.0888V45.2824V45.4768V45.6721V45.8682V46.0651V46.2628V46.4614V46.6608V46.861V47.0619V47.2637V47.4663V47.6697V47.8738V48.0788V48.2845V48.491V48.6982V48.9063V49.115V49.3246V49.5349V49.7459V49.9577V50.1702V50.3834V50.5974V50.8121V51.0275V51.2437V51.4605V51.6781V51.8964V52.1153V52.335V52.5553V52.7763V52.9981V53.2204V53.4435V53.6672V53.8916V54.1167V54.3424V54.5688V54.7958V55.0234V55.2517V55.4806V55.7102V55.9404V56.1712V56.4026V56.6346V56.8672V57.1005V57.3343V57.5687V57.8037V58.0393V58.2755V58.5123V58.7496V58.9875V59.226V59.465V59.7046V59.9447V60.1854V60.4266V60.6684V60.9106V61.1535V61.3968V61.6407V61.885V62.1299V62.3753V62.6212V62.8676V63.1145V63.3619V63.6098V63.8581V64.1069V64.3562V64.606V64.8562V65.1069V65.3581V65.6097V65.8617V66.1142V66.3671V66.6204V66.8742V67.1284V67.3831V67.6381V67.8936V68.1494V68.4057V68.6623V68.9194V69.1768V69.4347V69.6929V69.9515V70.2104V70.4697V70.7294V70.9895V71.2499V71.5106V71.7717V72.0332V72.2949V72.557V72.8195V73.0823V73.3453V73.6087V73.8724V74.1365V74.4008V74.6654V74.9303V75.1955V75.461V75.7267V75.9928V76.2591V76.5257V76.7925V77.0596V77.327V77.5946V77.8624V78.1305V78.3989V78.6674V78.9362V79.2052V79.4745V79.7439V80.0136V80.2835V80.5535V80.8238V81.0943V81.3649V81.6357V81.9068V82.1779V82.4493V82.7208V82.9925V83.2644V83.5364V83.8085V84.0808V84.3533V84.6259V84.8986V85.1714V85.4444V85.7175V85.9907V86.264V86.5374V86.8109V87.0845V87.3582V87.632V87.9059V88.1799V88.4539V88.728V89.0022V89.2764V89.5507V89.8251V90.0995V90.3739V90.6484V90.9229V91.1975V91.4721V91.7467V92.0213V92.296V92.5706V92.8453V93.1199V93.3946V93.6692V93.9439V94.2185V94.4931V94.7677V95.0422V95.3167V95.5912V95.8657V96.14V96.4144V96.6887V96.9629V97.2371V97.5112V97.7852V98.0591V98.333V98.6068V98.8805V99.154V99.4275V99.7009V99.9742V100.247V100.52V100.793V101.066V101.339V101.611V101.884V102.156V102.428V102.7V102.972V103.244V103.515V103.787V104.058V104.329V104.599V104.87V105.141V105.411V105.681V105.951V106.22V106.49V106.759V107.028V107.297V107.565V107.833V108.101V108.369V108.637V108.904V109.171V109.438V109.704V109.971V110.237V110.502V110.768V111.033V111.298V111.562V111.827V112.091V112.354V112.618V112.881V113.143V113.406V113.668V113.929V114.191V114.452V114.712V114.973V115.233V115.492V115.752V116.011V116.269V116.527V116.785V117.042V117.299V117.556V117.812V118.068V118.323V118.578V118.833V119.087V119.34V119.594V119.847V120.099V120.351V120.602V120.853V121.104V121.354V121.604V121.853V122.102V122.35V122.598V122.845V123.092V123.338V123.584V123.829V124.074V124.318V124.562V124.805V125.048V125.29V125.532V125.773V126.014V126.254V126.493V126.732V126.97V127.208V127.445V127.682V127.918V128.154V128.388V128.623V128.856V129.09V129.322V129.554V129.785V130.016V130.246V130.475V130.704V130.932V131.16V131.387V131.613V131.839V132.063V132.288V132.511V132.734V132.956V133.178V133.399V133.619V133.839V134.058V134.276V134.493V134.71V134.926V135.141V135.356V135.569V135.783V135.995V136.207V136.417V136.628V136.837V137.046V137.253V137.461V137.667V137.872V138.077V138.281V138.484V138.687V138.888V139.089V139.289V139.489V139.687V139.884V140.081V140.277V140.472V140.667V140.86V141.053V141.244V141.435V141.625V141.814V142.003V142.19V142.377V142.562C155.638 150.291 149.373 156.52 141.638 156.52H42.7066H28.6001C28.0478 156.52 27.6001 156.968 27.6001 157.52C27.6001 159.605 28.0233 161.36 28.8362 162.811C29.6508 164.265 30.8251 165.358 32.2377 166.16C35.0242 167.744 38.7687 168.218 42.7066 168.218H152.229C160.572 168.218 167.336 161.455 167.336 153.112V43.5891C167.336 39.6513 166.861 35.9067 165.278 33.1203C164.475 31.7077 163.383 30.5334 161.928 29.7188C160.477 28.9059 158.722 28.4827 156.638 28.4827Z" fill="white" stroke="white" stroke-width="2" stroke-linecap="round" stroke-linejoin="round"/>
<path d="M129.629 6H20.1065C11.7634 6 5 12.7634 5 21.1065V130.629C5 138.972 11.7634 145.736 20.1065 145.736H129.629C137.972 145.736 144.736 138.972 144.736 130.629V21.1065C144.736 12.7634 137.972 6 129.629 6ZM20.1065 17.6982H129.629C131.512 17.6982 133.038 19.2241 133.038 21.1065V125.778C133.038 128.763 131.97 130.784 130.421 132.077C128.844 133.393 126.666 134.038 124.336 134.038H20.1065C18.2241 134.038 16.6982 132.512 16.6982 130.629V21.1065C16.6982 19.2241 18.2241 17.6982 20.1065 17.6982Z" fill="white" stroke="white" stroke-width="2" stroke-linecap="round" stroke-linejoin="round"/>
</svg>
