<svg width="50" height="50" viewBox="0 0 50 50" fill="none" xmlns="http://www.w3.org/2000/svg">
<circle cx="25" cy="15.907" r="6.90698" stroke="white" stroke-width="3"/>
<path d="M35.3232 42H14.677C12.3252 42 10.4187 40.0935 10.4187 37.7417C10.4187 32.0404 15.0405 27.4186 20.7418 27.4186H29.2584C34.9597 27.4186 39.5815 32.0404 39.5815 37.7417C39.5815 40.0935 37.675 42 35.3232 42Z" stroke="white" stroke-width="3" stroke-linecap="round"/>
<path d="M10.8024 27.4186H10.67C5.86886 27.4186 1.97681 31.3107 1.97681 36.1118V36.1118C1.97681 38.0922 3.58228 39.6977 5.56273 39.6977H6.19774" stroke="white" stroke-width="3" stroke-linecap="round"/>
<path d="M14.958 11.4184C11.7841 11.241 9.06733 13.6701 8.88988 16.8439C8.71244 20.0178 11.1415 22.7346 14.3154 22.9121C14.9871 22.9496 15.6383 22.8705 16.2493 22.6922" stroke="white" stroke-width="3" stroke-linecap="round"/>
<path d="M39.1979 27.4186H39.3303C44.1314 27.4186 48.0234 31.3107 48.0234 36.1118V36.1118C48.0234 38.0922 46.418 39.6977 44.4375 39.6977H43.8025" stroke="white" stroke-width="3" stroke-linecap="round"/>
<path d="M35.0425 11.4184C38.2164 11.241 40.9332 13.6701 41.1106 16.844C41.2881 20.0179 38.859 22.7347 35.6851 22.9121C35.0134 22.9497 34.3622 22.8705 33.7512 22.6922" stroke="white" stroke-width="3" stroke-linecap="round"/>
</svg>
