<svg width="20" height="20" viewBox="0 0 20 20" fill="none" xmlns="http://www.w3.org/2000/svg">
<path fill-rule="evenodd" clip-rule="evenodd" d="M19.6653 0.334735C20.1116 0.781049 20.1116 1.50467 19.6653 1.95098L9.90197 11.7143L8.00001 12L8.28572 10.0981L18.049 0.334735C18.4953 -0.111578 19.219 -0.111578 19.6653 0.334735ZM0.000396803 3.47618C-0.0262093 1.87982 1.26056 0.571429 2.85714 0.571429H12.5714C13.2026 0.571429 13.7143 1.0831 13.7143 1.71429C13.7143 2.34547 13.2026 2.85714 12.5714 2.85714H2.85714C2.53782 2.85714 2.28047 3.11882 2.28579 3.43809L2.2858 17.1524C2.291 17.4642 2.54527 17.7143 2.85715 17.7143H16.5714C16.887 17.7143 17.1429 17.4584 17.1429 17.1429V7.42857C17.1429 6.79739 17.6545 6.28571 18.2857 6.28571C18.9169 6.28571 19.4286 6.79739 19.4286 7.42857V17.1429C19.4286 18.7208 18.1494 20 16.5714 20H2.85715C1.29776 20 0.0263915 18.7496 0.000405244 17.1905L0.000396803 3.47618Z" fill="white"/>
</svg>
