<svg width="50" height="50" viewBox="0 0 50 50" fill="none" xmlns="http://www.w3.org/2000/svg">
<path d="M35.2833 5.02966C38.6868 5.02966 41.8756 6.36436 44.2844 8.80639C46.693 11.2484 48.0097 14.4912 48 17.9417C48 21.3921 46.6736 24.6349 44.265 27.077L25.9118 45.6145C25.6583 45.8716 25.3169 46 24.9854 46C24.6538 46 24.3125 45.8617 24.0589 45.6047L5.74481 27.0374C3.33607 24.5954 2.00005 21.3625 2.00005 17.912C1.9903 14.4615 3.31657 11.2187 5.72528 8.77671C8.12426 6.34459 11.3229 5 14.7166 5C18.12 5 21.3284 6.35448 23.7371 8.79648L25.0145 10.0917L26.2726 8.81627C28.6813 6.37425 31.88 5.02966 35.2833 5.02966Z" fill="white" stroke="white" stroke-width="3"/>
</svg>
