<svg width="100" height="33" viewBox="0 0 100 33" fill="none" xmlns="http://www.w3.org/2000/svg">
<path d="M0.424673 20.1356L22.083 7.62685L22.0926 9.26592L3.11063 20.1763L15.6067 27.3327L15.6021 28.8275L0.424673 20.1356Z" fill="white"/>
<path d="M5.89859 20.2755L22.1022 10.905L22.118 29.5642L17.7826 27.0814L17.7897 15.2419L8.94928 20.389L15.5799 24.1863L15.5894 25.8253L5.89859 20.2755Z" fill="white"/>
<path d="M17.7792 28.5769L17.7662 30.0668L22.1154 32.5576L22.1152 31.06L17.7792 28.5769Z" fill="white"/>
<path fill-rule="evenodd" clip-rule="evenodd" d="M22.3063 7.24743L22.3222 9.40427L3.47971 20.2345L15.8164 27.2995L15.8104 29.249L1.97599e-05 20.1946L22.3063 7.24743ZM0.784936 20.1932L15.4211 28.5752L15.4244 27.526L2.69338 20.2351L21.9295 9.1786L21.9225 7.98522L0.784936 20.1932ZM22.3308 10.5965L22.3473 29.9887L17.6071 27.274L17.6141 15.6259L9.3341 20.4467L15.7884 24.143L15.8007 26.2395L5.49066 20.3351L22.3308 10.5965ZM6.2752 20.3334L15.4054 25.5622L15.3984 24.3706L8.55157 20.4495L18.0058 14.945L17.9986 27.0473L21.9554 29.3133L21.9401 11.2745L6.2752 20.3334ZM17.6067 28.3248L22.3441 31.0379L22.3444 32.991L17.5897 30.268L17.6067 28.3248ZM17.9922 28.9965L17.983 30.0423L21.953 32.3159L21.9529 31.2648L17.9922 28.9965Z" fill="white"/>
<path d="M30.0618 32.9935V7.1952H31.4423V31.3658H83.1132V32.9935H30.0618Z" fill="white"/>
<path d="M40.0917 28.1104V7.1952H41.4722V28.1104H40.0917Z" fill="white"/>
<path d="M52.7558 17.567H57.2636V27.4667C55.6953 28.0866 54.0659 28.3965 52.3755 28.3965C50.1309 28.3965 48.3889 27.4428 47.1492 25.5354C45.9096 23.6279 45.2897 20.9813 45.2897 17.5956C45.2897 14.2003 45.9283 11.568 47.2056 9.69873C48.4922 7.82943 50.2953 6.89478 52.6149 6.89478C54.1739 6.89478 55.6436 7.34303 57.0242 8.23953L56.3621 9.46984C55.0661 8.63056 53.817 8.21092 52.6149 8.21092C50.6897 8.21092 49.2294 9.01682 48.2339 10.6286C47.2478 12.2309 46.7548 14.5627 46.7548 17.6242C46.7548 20.6189 47.2525 22.9412 48.248 24.5912C49.2529 26.2316 50.6709 27.0518 52.5022 27.0518C53.817 27.0518 54.9393 26.8754 55.869 26.5225V18.9117H52.7558V17.567Z" fill="white"/>
<path d="M71.0829 28.1104H69.7024V17.8245H62.5181V28.1104H61.1375V7.1952H62.5181V16.4797H69.7024V7.1952H71.0829V28.1104Z" fill="white"/>
<path d="M79.0139 28.1104H77.6334V8.53995H73.5341V7.1952H83.1132V8.53995H79.0139V28.1104Z" fill="white"/>
<path d="M87.978 13.63V28.1016H86.7266V13.63H87.978ZM87.3922 8.21142C87.7029 8.21142 87.9292 8.32236 88.0712 8.54425C88.2221 8.76614 88.2975 9.04129 88.2975 9.36968C88.2975 9.72471 88.2132 10.0087 88.0446 10.2217C87.8848 10.4348 87.6585 10.5413 87.3656 10.5413C87.0816 10.5413 86.8553 10.4348 86.6866 10.2217C86.5269 9.99985 86.447 9.72027 86.447 9.383C86.447 9.04572 86.5224 8.76614 86.6733 8.54425C86.8242 8.32236 87.0638 8.21142 87.3922 8.21142Z" fill="white"/>
<path d="M95.2738 28.3679C93.9069 28.3679 92.8729 27.7422 92.1717 26.4907C91.4706 25.2304 91.12 23.402 91.12 21.0056C91.12 18.5204 91.4839 16.6255 92.2117 15.3208C92.9395 14.0072 93.9691 13.3504 95.3004 13.3504C95.8951 13.3504 96.4187 13.4791 96.8714 13.7365C97.3329 13.985 97.719 14.309 98.0296 14.7084C98.3403 15.1078 98.5755 15.5427 98.7353 16.0131H98.8018C98.7841 15.6492 98.7663 15.3119 98.7486 15.0013C98.7397 14.6817 98.7353 14.38 98.7353 14.0959V7.38599H100V28.1016H99.0015L98.8284 25.5987H98.7353C98.5755 26.078 98.3447 26.5307 98.043 26.9567C97.7412 27.3827 97.364 27.7244 96.9113 27.9818C96.4587 28.2392 95.9128 28.3679 95.2738 28.3679ZM95.4868 27.2363C96.543 27.2363 97.3507 26.757 97.9098 25.7984C98.469 24.8399 98.7486 23.5174 98.7486 21.831V19.9405C98.7486 18.2275 98.469 16.8962 97.9098 15.9465C97.3595 14.9968 96.5652 14.522 95.5267 14.522C94.506 14.522 93.7339 15.0723 93.2102 16.1728C92.6865 17.2734 92.4247 18.8843 92.4247 21.0056C92.4247 22.9937 92.6643 24.5292 93.1436 25.612C93.6318 26.6949 94.4128 27.2363 95.4868 27.2363Z" fill="white"/>
</svg>
