<svg width="31" height="25" viewBox="0 0 31 25" fill="none" xmlns="http://www.w3.org/2000/svg">
<g clip-path="url(#clip0_324_532)">
<g clip-path="url(#clip1_324_532)">
<path d="M1.30546 23.8254L14.9944 0.820134L15.9147 2.31484L3.88812 22.4292L19.7765 22.3082L20.6031 23.6785L1.30546 23.8254Z" fill="white"/>
<path d="M6.60048 21.032L16.835 3.80954L27.223 20.875L21.7107 20.9169L15.1357 10.0796L9.57121 19.5076L18.0018 19.4435L18.9221 20.9382L6.60048 21.032Z" fill="white"/>
<path d="M22.5388 22.2872L23.3547 23.6576L28.8846 23.6155L28.0519 22.2452L22.5388 22.2872Z" fill="white"/>
<path fill-rule="evenodd" clip-rule="evenodd" d="M14.9962 0.353375L16.2103 2.31849L4.27217 22.285L19.9579 22.1656L21.0359 23.9526L0.933495 24.1057L14.9962 0.353375ZM1.68081 23.6854L20.2903 23.5438L19.7101 22.582L3.52305 22.7052L15.7107 2.32155L15.0406 1.23328L1.68081 23.6854ZM16.8813 3.40476L27.6774 21.1406L21.6505 21.1865L15.1817 10.5243L9.97 19.3546L18.1765 19.2922L19.3536 21.204L6.24475 21.3038L16.8813 3.40476ZM6.99157 20.8836L18.6004 20.7952L17.9313 19.7086L9.22572 19.7749L15.1766 9.69218L21.8975 20.7701L26.9285 20.7318L16.8858 4.23371L6.99157 20.8836ZM22.2342 22.1483L28.2577 22.1024L29.3438 23.8894L23.2983 23.9354L22.2342 22.1483ZM22.975 22.5572L23.5477 23.519L28.5954 23.4806L28.0109 22.5188L22.975 22.5572Z" fill="white"/>
</g>
</g>
<defs>
<clipPath id="clip0_324_532">
<rect width="31" height="25" fill="white"/>
</clipPath>
<clipPath id="clip1_324_532">
<rect width="29.4628" height="28.8778" fill="white" transform="matrix(-0.872516 0.488585 -0.519221 -0.85464 33.9904 21.8091)"/>
</clipPath>
</defs>
</svg>
