<svg width="30" height="30" viewBox="0 0 30 30" fill="none" xmlns="http://www.w3.org/2000/svg">
<path d="M23.75 13.125C23.75 15.2264 23.1269 17.2807 21.9594 19.0279C20.7919 20.7752 19.1325 22.137 17.191 22.9412C15.2496 23.7454 13.1132 23.9558 11.0522 23.5458C8.99112 23.1359 7.09793 22.1239 5.612 20.638C4.12606 19.1521 3.11413 17.2589 2.70416 15.1978C2.29419 13.1368 2.5046 11.0005 3.30878 9.05899C4.11297 7.11752 5.4748 5.45813 7.22207 4.29064C8.96934 3.12315 11.0236 2.5 13.125 2.5C15.9429 2.5 18.6454 3.61942 20.638 5.61199C22.6306 7.60456 23.75 10.3071 23.75 13.125Z" stroke="white" stroke-width="2.7" stroke-linecap="round" stroke-linejoin="round"/>
<path d="M20.6387 20.6387L27.5 27.4999" stroke="white" stroke-width="2.7" stroke-linecap="round" stroke-linejoin="round"/>
</svg>
