<svg width="34" height="32" viewBox="0 0 34 32" fill="none" xmlns="http://www.w3.org/2000/svg">
<path d="M29.8284 4.47879C28.226 2.83556 26.1047 1.93744 23.8406 1.93744C21.5768 1.93744 19.4489 2.84221 17.8466 4.48544L17.0097 5.34365L16.1599 4.47213C14.5576 2.82891 12.4233 1.91748 10.1593 1.91748C7.90177 1.91748 5.77398 2.82225 4.17814 4.45883C2.57582 6.10205 1.69356 8.28415 1.70005 10.606C1.70005 12.9278 2.58879 15.1032 4.19113 16.7464L16.374 29.2403C16.5427 29.4133 16.7697 29.5063 16.9903 29.5063C17.2108 29.5063 17.4379 29.4199 17.6066 29.247L29.8155 16.7731C31.4177 15.1298 32.3 12.9477 32.3 10.6259C32.3065 8.30411 31.4306 6.12202 29.8284 4.47879ZM28.5828 15.5024L16.9903 27.3442L5.42368 15.4824C4.1522 14.1785 3.45157 12.4488 3.45157 10.606C3.45157 8.76315 4.1457 7.03344 5.4172 5.73615C6.68219 4.43887 8.36884 3.72038 10.1593 3.72038C11.9562 3.72038 13.6494 4.43887 14.9209 5.7428L16.387 7.24633C16.7308 7.59892 17.2822 7.59892 17.626 7.24633L19.0791 5.75612C20.3507 4.45218 22.0437 3.73368 23.8342 3.73368C25.6246 3.73368 27.3114 4.45218 28.5828 5.74947C29.8544 7.05339 30.5485 8.7831 30.5485 10.6259C30.555 12.4687 29.8544 14.1984 28.5828 15.5024Z" fill="white" stroke="white" stroke-width="1.15"/>
</svg>
