<svg width="23" height="23" viewBox="0 0 23 23" fill="none" xmlns="http://www.w3.org/2000/svg">
<path d="M21.529 17.5722L18.286 14.3288C17.6401 13.6855 16.5703 13.7052 15.9018 14.3737L14.268 16.0074C14.1649 15.9503 14.058 15.8909 13.9457 15.8279C12.914 15.2562 11.5018 14.4726 10.0156 12.9855C8.52536 11.4953 7.74079 10.0808 7.16757 9.0484C7.10672 8.93894 7.04888 8.83363 6.99176 8.73349L8.08835 7.63836L8.62736 7.09862C9.29698 6.429 9.31554 5.35947 8.67079 4.71442L5.42769 1.47059C4.78336 0.826257 3.7131 0.845848 3.04348 1.51547L2.15463 2.45957C1.84822 2.85057 1.59187 3.30168 1.40156 3.78804C1.22576 4.25097 1.1163 4.69286 1.06623 5.13537C0.638129 8.6856 2.26036 11.9301 6.66307 16.3332C12.7489 22.4185 17.6535 21.9589 17.8649 21.9363C18.3261 21.8814 18.7675 21.7712 19.2164 21.5969C19.6986 21.4084 20.1494 21.1528 20.54 20.8471L21.486 19.9578C22.1541 19.2883 22.1734 18.2188 21.529 17.5722ZM20.7656 19.2368L20.3575 19.6442L20.1949 19.8004C19.939 20.0478 19.496 20.3954 18.849 20.6484C18.4818 20.7898 18.1197 20.8806 17.7513 20.9244C17.705 20.9289 13.092 21.3225 7.38265 15.6136C2.5282 10.7594 1.75026 7.96218 2.07637 5.25302C2.11721 4.89395 2.20728 4.5326 2.35126 4.15498C2.60647 3.50433 2.95372 3.06172 3.19928 2.80537L3.76348 2.23557C4.03537 1.96296 4.45943 1.94212 4.708 2.19069L7.951 5.43369C8.19916 5.68257 8.17957 6.10663 7.90726 6.38007L5.7171 8.56806L5.91923 8.90826C6.03159 9.09785 6.15038 9.31034 6.27726 9.54119C6.87971 10.6277 7.70399 12.115 9.29584 13.7054C10.8836 15.2939 12.3686 16.1175 13.4519 16.7184C13.6859 16.8478 13.8996 16.9669 14.0914 17.0812L14.4323 17.2833L16.6211 15.0939C16.8941 14.822 17.3196 14.8019 17.5682 15.0497L20.8097 18.292C21.0576 18.5404 21.0379 18.9645 20.7656 19.2368Z" fill="white" stroke="white" stroke-width="0.7"/>
</svg>
