<svg width="180" height="157" viewBox="0 0 180 157" fill="none" xmlns="http://www.w3.org/2000/svg">
<path fill-rule="evenodd" clip-rule="evenodd" d="M78.739 78.3185L72.2556 74.3127L6.38099 113.7L6.77496 61.9486L0.879002 58.392L0.374109 124.715L78.739 78.3185ZM68.6717 72.0989L10.1565 36.4798L10.0052 56.3643L45.1825 77.7063L16.0489 94.9011L16.2551 67.8258L9.94747 63.9422L9.61822 107.192L68.6717 72.0989ZM6.83213 54.4384L6.98342 34.5653L1.08766 30.9821L0.935824 50.9278L6.83213 54.4384Z" fill="white"/>
<path fill-rule="evenodd" clip-rule="evenodd" d="M179.413 78.4138L168.708 71.7998L59.9446 136.831L59.9446 115.333L50.0268 121.163L50.0268 155.018L179.413 78.4138ZM162.791 68.1447L66.1783 9.33496L65.9284 42.1656L124.009 77.4029L75.9072 105.793L65.2895 112.077L65.2895 126.086L162.791 68.1447ZM60.6895 38.9858L60.9393 6.17389L51.205 0.257777L50.9543 33.1896L60.6895 38.9858Z" fill="white"/>
</svg>
