<svg width="24" height="24" viewBox="0 0 24 24" fill="none" xmlns="http://www.w3.org/2000/svg">
<path d="M9.11325 23.8156C8.97251 23.8156 8.82941 23.7885 8.69156 23.7315L6.0448 22.6353C5.48079 22.4013 5.21218 21.7528 5.44561 21.1888C5.82582 20.2711 5.46898 19.4521 5.00842 18.9915C4.54786 18.5312 3.72889 18.1747 2.81145 18.5546C2.53785 18.668 2.23694 18.6678 1.96412 18.5546C1.69078 18.4414 1.4781 18.229 1.36493 17.9557L0.269204 15.3094C0.156034 15.0364 0.156034 14.7354 0.269204 14.4621C0.382373 14.189 0.595059 13.9763 0.8684 13.8632C1.7861 13.483 2.11301 12.6516 2.11301 12.0005C2.11301 11.3493 1.7861 10.518 0.8684 10.138C0.595059 10.0248 0.382373 9.8119 0.269204 9.53882C0.156034 9.26548 0.156034 8.96457 0.269204 8.69149L1.36545 6.04526C1.59915 5.48151 2.24771 5.21264 2.81172 5.44607C3.72942 5.82628 4.54865 5.46944 5.00894 5.00888C5.4695 4.54832 5.82608 3.72935 5.44613 2.81191C5.2127 2.24817 5.48132 1.59908 6.04507 1.36539L8.69182 0.2694C8.96437 0.155968 9.26555 0.155968 9.53915 0.2694C9.81223 0.38257 10.0252 0.595256 10.1383 0.868597C10.5183 1.7863 11.3496 2.1132 12.0008 2.1132C12.652 2.1132 13.4833 1.7863 13.8635 0.868597C13.9769 0.595256 14.1894 0.38257 14.4624 0.2694C14.7358 0.156231 15.0367 0.155968 15.31 0.2694L17.9565 1.36539C18.2296 1.47856 18.4425 1.69151 18.5555 1.96458C18.6689 2.23793 18.6689 2.53884 18.5555 2.81191C18.1755 3.72935 18.5318 4.54832 18.9924 5.00888C19.4532 5.46944 20.2724 5.82601 21.1896 5.44607C21.7541 5.21211 22.4019 5.48151 22.6361 6.045L23.7319 8.69149C23.9653 9.25524 23.6964 9.90407 23.1329 10.1378C22.2152 10.518 21.8881 11.3493 21.8881 12.0005C21.8881 12.6516 22.215 13.483 23.1327 13.8632C23.6961 14.0969 23.9653 14.7454 23.7319 15.3094L22.6356 17.9562C22.4019 18.5205 21.752 18.7883 21.1891 18.5551C20.2719 18.1752 19.4527 18.5315 18.9918 18.992C18.5313 19.4526 18.175 20.2716 18.5549 21.1893C18.7886 21.753 18.52 22.4018 17.956 22.6358L15.3095 23.7321C14.7455 23.9657 14.0967 23.6966 13.863 23.1329C13.4828 22.2152 12.6515 21.8882 12.0003 21.8882C11.3491 21.8882 10.5178 22.2152 10.1378 23.1329C9.96111 23.5582 9.54782 23.8156 9.11325 23.8156ZM3.60259 17.3433C4.39189 17.3433 5.15704 17.655 5.75151 18.2492C6.64505 19.1428 6.89975 20.4233 6.41608 21.591C6.40427 21.6196 6.41792 21.653 6.44707 21.6651L9.0933 22.7613C9.12192 22.7726 9.15527 22.7592 9.16761 22.7303C9.65127 21.5629 10.7368 20.8374 12.0003 20.8374C13.2638 20.8374 14.3498 21.5629 14.8332 22.7303C14.845 22.7592 14.8791 22.7734 14.9075 22.7613L17.5537 21.6651C17.5682 21.6593 17.5787 21.6485 17.5844 21.6343C17.5902 21.6202 17.5902 21.6055 17.5844 21.591C17.101 20.4233 17.3557 19.1428 18.2493 18.2492C19.1428 17.3554 20.4239 17.1012 21.5911 17.5846C21.6053 17.5902 21.6197 17.5907 21.6344 17.5846C21.6488 17.5789 21.6593 17.5681 21.6651 17.5539L22.7614 14.9074C22.7732 14.8788 22.7593 14.8455 22.7304 14.8334C21.563 14.3497 20.8375 13.2642 20.8375 12.0005C20.8375 10.7367 21.563 9.65121 22.7304 9.16754C22.7593 9.15546 22.7732 9.12238 22.7614 9.09323L21.6654 6.44674C21.6536 6.41812 21.6197 6.4042 21.5913 6.41602C20.4231 6.89968 19.1428 6.64525 18.2496 5.75118C17.356 4.85764 17.1013 3.57706 17.585 2.40965C17.5907 2.39521 17.5907 2.38077 17.585 2.36606C17.5792 2.35162 17.5684 2.34138 17.5543 2.33534L14.9072 1.23935C14.8789 1.22675 14.845 1.24119 14.8332 1.27007C14.3495 2.43748 13.264 3.16298 12.0003 3.16298C10.7365 3.16298 9.65101 2.43748 9.16761 1.27007C9.16157 1.25563 9.15106 1.24539 9.13689 1.23935C9.12244 1.23358 9.108 1.23331 9.09356 1.23935L6.4468 2.33534C6.41818 2.34716 6.40427 2.38077 6.41608 2.40965C6.89975 3.57706 6.64505 4.85764 5.75151 5.75118C4.85796 6.64472 3.57765 6.89942 2.40971 6.41576C2.38057 6.40342 2.34775 6.41759 2.33567 6.44648L1.23942 9.09323C1.23338 9.10768 1.23338 9.12238 1.23942 9.13656C1.24519 9.151 1.2557 9.16124 1.27014 9.16728C2.43781 9.65094 3.16304 10.7364 3.16304 12.0002C3.16304 13.264 2.43781 14.3495 1.27014 14.8331C1.24126 14.8452 1.2276 14.8783 1.23942 14.9072L2.33541 17.5537C2.34145 17.5681 2.35169 17.5786 2.36613 17.5844C2.38057 17.5904 2.39501 17.5904 2.40945 17.5844C2.80069 17.4224 3.20479 17.3433 3.60259 17.3433ZM12.0003 17.3055C9.07492 17.3055 6.69494 14.9258 6.69494 12.0002C6.69494 9.07459 9.07492 6.69487 12.0003 6.69487C14.9256 6.69487 17.3056 9.07485 17.3056 12.0002C17.3056 14.9255 14.9259 17.3055 12.0003 17.3055ZM12.0003 7.74517C9.65416 7.74517 7.74524 9.65409 7.74524 12.0002C7.74524 14.3463 9.6539 16.2552 12.0003 16.2552C14.3466 16.2552 16.2553 14.3466 16.2553 12.0002C16.2553 9.65383 14.3466 7.74517 12.0003 7.74517Z" fill="white"/>
</svg>
