<svg width="27" height="21" viewBox="0 0 27 21" fill="none" xmlns="http://www.w3.org/2000/svg">
<path fill-rule="evenodd" clip-rule="evenodd" d="M19.5632 5.15369C19.5632 4.35268 18.8679 3.6 17.8929 3.6H4.27045C3.29529 3.6 2.6 4.35271 2.6 5.15369V15.8463C2.6 16.6473 3.29533 17.4 4.27045 17.4H17.8929C18.868 17.4 19.5633 16.6473 19.5633 15.8463L19.5632 5.15369ZM21.0464 4.31694C20.6653 2.98284 19.3961 2 17.8929 2H4.27045C2.46683 2 1 3.41485 1 5.15369V15.8463C1 17.5852 2.4669 19 4.27045 19H17.8929C19.5332 19 20.895 17.8297 21.1281 16.3098C21.1513 16.1585 21.1633 16.0037 21.1633 15.8463V14.6052L26 16.5V4L21.7008 5.77775L21.1633 6L21.1632 5.15369C21.1632 4.86411 21.1226 4.58351 21.0464 4.31694ZM22.7633 7.06978V13.5136L24.4 14.1548V6.393L22.7633 7.06978Z" fill="white"/>
</svg>
