<svg width="24" height="24" viewBox="0 0 24 24" fill="none" xmlns="http://www.w3.org/2000/svg">
<g clip-path="url(#clip0_324_717)">
<path d="M23.6222 11.8171L4.35011 22.9476L4.34159 21.4891L21.2322 11.7808L10.1129 5.41288L10.117 4.08276L23.6222 11.8171Z" fill="white"/>
<path d="M18.7514 11.6925L4.33307 20.0306L4.31899 3.42725L8.17671 5.63652L8.17041 16.1715L16.0368 11.5915L10.1368 8.21264L10.1283 6.75415L18.7514 11.6925Z" fill="white"/>
<path d="M8.17975 4.30579L8.19134 2.97996L4.32129 0.76362L4.3215 2.09621L8.17975 4.30579Z" fill="white"/>
<path fill-rule="evenodd" clip-rule="evenodd" d="M4.15137 23.2856L4.13723 21.3664L20.9037 11.7294L9.92624 5.44272L9.9316 3.70804L24 11.7649L4.15137 23.2856ZM23.3016 11.7661L10.278 4.30765L10.2751 5.24123L21.6034 11.7288L4.48662 21.5672L4.49282 22.6291L23.3016 11.7661ZM4.12953 20.3055L4.1149 3.04987L8.33279 5.46541L8.32659 15.8302L15.6943 11.5405L9.95111 8.25146L9.94021 6.38596L19.1143 11.6399L4.12953 20.3055ZM18.4162 11.6413L10.2919 6.98865L10.2981 8.04893L16.3906 11.538L7.97803 16.4361L7.98447 5.66719L4.46362 3.65083L4.47722 19.7022L18.4162 11.6413ZM8.33317 4.53039L4.11769 2.11623L4.11741 0.378315L8.3483 2.8013L8.33317 4.53039ZM7.99018 3.9327L7.99832 3.00213L4.46572 0.979046L4.46587 1.91436L7.99018 3.9327Z" fill="white"/>
</g>
<defs>
<clipPath id="clip0_324_717">
<rect width="24" height="24" fill="white"/>
</clipPath>
</defs>
</svg>
